<svg width="361" height="360" viewBox="0 0 361 360" fill="none" xmlns="http://www.w3.org/2000/svg">
<rect x="1" width="360" height="360" rx="2" fill="url(#paint0_linear)"/>
<g clip-path="url(#clip0)">
<path d="M194.709 194.704C201.034 186.274 202.342 175.094 198.131 165.432C198.007 165.485 197.876 165.521 197.755 165.572C197.634 165.623 197.507 165.665 197.381 165.714C196.67 165.995 195.94 166.229 195.198 166.415L194.606 166.546C193.871 166.705 193.125 166.809 192.375 166.861C192.229 166.873 192.091 166.898 191.945 166.905C191.055 166.948 190.166 166.92 189.282 166.824C189.131 166.807 188.988 166.767 188.84 166.747C188.124 166.648 187.417 166.504 186.721 166.317C186.451 166.242 186.189 166.157 185.923 166.07C185.319 165.867 184.726 165.634 184.146 165.369C183.901 165.254 183.651 165.153 183.414 165.028C181.785 164.217 180.315 163.124 179.071 161.8C178.876 161.604 178.707 161.394 178.522 161.19C178.107 160.715 177.717 160.22 177.353 159.707C177.189 159.469 177.025 159.238 176.872 158.993C176.513 158.411 176.187 157.808 175.899 157.189C175.819 157.014 175.72 156.851 175.645 156.675C175.316 155.885 175.043 155.07 174.832 154.24C174.78 154.021 174.75 153.807 174.703 153.588C174.568 152.952 174.466 152.31 174.401 151.663C174.374 151.376 174.348 151.101 174.346 150.8C174.323 150.176 174.332 149.55 174.374 148.928C174.393 148.668 174.391 148.415 174.428 148.148C174.439 148.041 174.432 147.936 174.448 147.832C160.242 146.189 146.906 154.98 142.818 168.684C138.729 182.387 145.066 197.047 157.849 203.457C170.633 209.868 186.172 206.177 194.709 194.704V194.704Z" fill="white"/>
<path d="M103.135 210.327C104.406 209.744 105.511 208.849 106.343 207.726C108.898 204.312 108.511 199.529 105.437 196.571C102.365 193.615 97.5682 193.411 94.2552 196.097C90.9435 198.782 90.1511 203.516 92.4098 207.136C94.668 210.753 99.2678 212.122 103.135 210.327V210.327Z" fill="white"/>
<path d="M228.508 219.817C252.087 188.087 245.479 143.25 213.749 119.671C182.017 96.0914 137.181 102.701 113.603 134.431C102.559 149.154 97.6853 167.601 100.016 185.857C100.928 185.884 101.835 185.984 102.73 186.158C102.885 186.191 103.031 186.246 103.174 186.267C104.109 186.478 105.026 186.767 105.913 187.135C106.185 187.247 106.454 187.358 106.709 187.473C111.33 189.569 114.744 193.654 115.989 198.572C117.234 203.49 116.174 208.709 113.108 212.749C112.428 213.646 111.661 214.472 110.82 215.214C110.76 215.295 110.694 215.384 110.605 215.444C115.284 222.871 121.304 229.36 128.362 234.577C160.103 258.11 204.903 251.507 228.508 219.817V219.817ZM203.077 132.619C202.893 132.426 202.738 132.206 202.621 131.965C202.462 131.744 202.344 131.496 202.27 131.233C202.17 130.948 202.1 130.687 202.032 130.426C201.978 129.876 202.018 129.322 202.152 128.783C202.28 128.249 202.511 127.744 202.835 127.298C203.847 125.919 205.593 125.29 207.251 125.706C208.911 126.122 210.155 127.5 210.397 129.193C210.634 130.878 209.834 132.54 208.37 133.404C207.893 133.687 207.374 133.886 206.831 133.992C205.724 134.127 204.608 133.841 203.703 133.189C203.479 133.015 203.272 132.825 203.077 132.619ZM140.639 154.522C149.185 142.952 163.587 137.277 177.731 139.903C183.422 132.921 193.602 131.651 200.833 137.025C208.064 142.398 209.785 152.511 204.74 159.973C213.207 176.619 208.271 196.954 193.112 207.863C177.956 218.773 157.108 216.999 144.01 203.685C130.914 190.373 129.482 169.498 140.639 154.522Z" fill="white"/>
<path d="M196.847 156.297C197.231 155.932 197.583 155.533 197.903 155.11C200.677 151.377 199.899 146.102 196.167 143.328C192.434 140.554 187.159 141.332 184.385 145.064C184.063 145.504 183.779 145.972 183.537 146.46C181.773 150.106 182.854 154.49 186.111 156.898C189.368 159.305 193.879 159.053 196.847 156.297Z" fill="white"/>
<path d="M140.266 70.3117C143.894 65.4362 143.536 58.6692 139.416 54.2039C135.294 49.7373 128.577 48.839 123.426 52.0654C118.278 55.2914 116.154 61.7277 118.375 67.384C119.003 69.0313 119.981 70.5241 121.24 71.7595C121.664 72.1746 122.116 72.562 122.593 72.9163C128.192 77.077 136.106 75.9108 140.266 70.3117Z" fill="white"/>
<path d="M265.686 247.439C278.764 229.899 286.683 209.055 288.554 187.257C287.376 187.073 286.213 186.808 285.076 186.46C284.765 186.368 284.462 186.248 284.155 186.145C283.227 185.829 282.318 185.459 281.432 185.038C281.097 184.879 280.768 184.729 280.445 184.556C279.309 183.973 278.221 183.3 277.188 182.545C271.184 178.161 267.438 171.338 266.96 163.918C266.484 156.5 269.325 149.254 274.716 144.137C275.022 143.839 275.314 143.6 275.619 143.332C276.378 142.669 277.173 142.051 278.002 141.479C278.334 141.254 278.658 141.021 279 140.809C280.147 140.086 281.35 139.456 282.598 138.924C263.85 84.1706 208.123 51.133 151.089 60.9552L151.087 61.0584C151.176 62.1723 151.174 63.2924 151.081 64.4067C151.061 64.6638 151.031 64.9255 151.002 65.1809C150.887 66.225 150.695 67.26 150.43 68.2748C150.403 68.3596 150.398 68.4456 150.37 68.5304C150.055 69.6099 149.65 70.6615 149.168 71.676C149.05 71.924 148.927 72.1684 148.803 72.4116C145.747 78.4502 139.96 82.6359 133.271 83.6511C126.58 84.6651 119.815 82.3809 115.107 77.5202C114.859 77.2746 114.646 76.9959 114.415 76.7346C113.921 76.1903 113.459 75.6191 113.026 75.0261C112.932 74.8916 112.808 74.7746 112.714 74.6401C98.4951 82.6958 86.1328 93.6548 76.4294 106.802C37.5939 159.064 48.4779 232.913 100.739 271.749C153.001 310.585 226.85 299.701 265.686 247.439ZM89.5459 216.219C82.0804 210.672 80.5254 200.121 86.073 192.655C87.6087 190.602 89.5977 188.932 91.887 187.775C86.8931 150.092 109.145 114.108 145.089 101.741C181.034 89.3726 220.715 104.047 239.966 136.825C259.216 169.603 252.703 211.407 224.393 236.775C196.085 262.144 153.819 264.05 123.342 241.333C115.239 235.299 108.371 227.765 103.114 219.138C98.3838 220.171 93.4337 219.108 89.5459 216.219Z" fill="white"/>
<path d="M288.763 145.788C280.998 147.428 275.431 154.267 275.402 162.204C275.373 170.14 280.888 177.02 288.641 178.719C296.393 180.417 304.278 176.472 307.57 169.251C310.861 162.03 308.665 153.49 302.297 148.753C298.412 145.889 293.49 144.811 288.763 145.788Z" fill="white"/>
<path d="M80.0849 207.203C80.2174 206.666 80.259 206.11 80.2043 205.56C79.8422 203.262 77.7085 201.677 75.4056 201.994C74.8629 202.101 74.3428 202.301 73.8671 202.582C73.3793 202.842 72.9595 203.214 72.6424 203.665C71.6139 205.032 71.5152 206.885 72.3902 208.355C73.268 209.824 74.9466 210.616 76.6384 210.359C77.184 210.262 77.7057 210.063 78.1769 209.771C79.1259 209.2 79.8113 208.278 80.0849 207.203Z" fill="white"/>
</g>
<path d="M203.198 255.594L197.226 265.937C195.569 268.807 196.418 272.687 199.121 274.604L247.93 309.208C250.634 311.125 254.168 310.352 255.825 307.482L261.797 297.138C263.454 294.269 262.606 290.389 259.902 288.472L211.093 253.868C208.389 251.951 204.855 252.724 203.198 255.594Z" fill="white"/>
<defs>
<linearGradient id="paint0_linear" x1="32.7225" y1="360.385" x2="257.722" y2="0.672889" gradientUnits="userSpaceOnUse">
<stop stop-color="#F27A54"/>
<stop offset="1" stop-color="#801CCC"/>
<stop offset="1" stop-color="#801CCC"/>
</linearGradient>
<clipPath id="clip0">
<rect width="240" height="240" fill="white" transform="translate(336 152.814) rotate(126.616)"/>
</clipPath>
</defs>
</svg>
