<svg width="400" height="400" viewBox="0 0 400 400" fill="none" xmlns="http://www.w3.org/2000/svg">
<rect width="400" height="400" rx="2" fill="#801CCC"/>
<g clip-path="url(#clip0)">
<path d="M230.506 219.738C237.71 210.138 239.199 197.405 234.404 186.4C234.262 186.461 234.113 186.502 233.976 186.56C233.837 186.618 233.693 186.666 233.549 186.722C232.74 187.042 231.909 187.309 231.063 187.52L230.389 187.67C229.552 187.85 228.702 187.969 227.847 188.028C227.682 188.042 227.524 188.07 227.358 188.078C226.344 188.127 225.332 188.095 224.325 187.986C224.153 187.966 223.991 187.921 223.822 187.898C223.007 187.785 222.201 187.621 221.408 187.408C221.101 187.323 220.803 187.227 220.5 187.127C219.812 186.896 219.137 186.63 218.476 186.329C218.198 186.198 217.913 186.083 217.642 185.94C215.788 185.017 214.113 183.773 212.696 182.264C212.474 182.041 212.281 181.802 212.071 181.57C211.598 181.029 211.154 180.465 210.74 179.88C210.552 179.61 210.366 179.346 210.191 179.067C209.782 178.404 209.412 177.718 209.084 177.013C208.992 176.814 208.88 176.628 208.795 176.428C208.419 175.528 208.109 174.599 207.869 173.654C207.809 173.405 207.774 173.161 207.721 172.911C207.567 172.187 207.451 171.456 207.378 170.719C207.346 170.392 207.317 170.079 207.315 169.736C207.289 169.025 207.299 168.312 207.347 167.604C207.369 167.308 207.367 167.021 207.409 166.716C207.421 166.594 207.413 166.475 207.431 166.357C191.251 164.485 176.063 174.497 171.408 190.105C166.751 205.711 173.968 222.407 188.526 229.707C203.086 237.008 220.784 232.805 230.506 219.738V219.738Z" fill="white"/>
<path d="M126.214 237.531C127.661 236.867 128.92 235.848 129.867 234.569C132.777 230.681 132.336 225.233 128.835 221.865C125.337 218.498 119.873 218.265 116.1 221.325C112.329 224.383 111.426 229.774 113.998 233.897C116.57 238.017 121.809 239.576 126.214 237.531V237.531Z" fill="white"/>
<path d="M269 248.339C295.853 212.203 288.327 161.137 252.19 134.284C216.051 107.429 164.988 114.957 138.135 151.093C125.557 167.862 120.007 188.871 122.661 209.662C123.7 209.693 124.732 209.807 125.752 210.005C125.928 210.042 126.095 210.105 126.257 210.13C127.322 210.369 128.366 210.699 129.377 211.117C129.687 211.246 129.993 211.371 130.284 211.503C135.546 213.89 139.435 218.542 140.853 224.143C142.271 229.745 141.063 235.688 137.571 240.29C136.797 241.311 135.924 242.251 134.965 243.097C134.897 243.189 134.822 243.291 134.721 243.359C140.049 251.817 146.906 259.208 154.944 265.149C191.093 291.95 242.116 284.43 269 248.339V248.339ZM240.036 149.03C239.826 148.81 239.65 148.56 239.516 148.285C239.335 148.034 239.202 147.751 239.117 147.452C239.003 147.127 238.923 146.829 238.846 146.533C238.784 145.906 238.83 145.275 238.982 144.662C239.128 144.053 239.392 143.478 239.761 142.971C240.913 141.4 242.901 140.684 244.79 141.157C246.681 141.631 248.097 143.2 248.373 145.129C248.642 147.047 247.731 148.94 246.064 149.924C245.521 150.247 244.93 150.473 244.312 150.594C243.051 150.748 241.779 150.422 240.749 149.68C240.494 149.481 240.258 149.265 240.036 149.03ZM168.926 173.975C178.659 160.799 195.061 154.335 211.17 157.326C217.651 149.374 229.245 147.928 237.48 154.048C245.716 160.167 247.676 171.685 241.93 180.184C251.574 199.141 245.951 222.3 228.687 234.725C211.426 247.15 187.682 245.13 172.765 229.967C157.85 214.805 156.219 191.032 168.926 173.975Z" fill="white"/>
<path d="M232.94 175.997C233.378 175.581 233.779 175.127 234.143 174.645C237.302 170.394 236.417 164.386 232.166 161.227C227.915 158.068 221.907 158.953 218.748 163.204C218.381 163.705 218.058 164.238 217.782 164.794C215.773 168.946 217.004 173.939 220.714 176.681C224.423 179.423 229.56 179.136 232.94 175.997Z" fill="white"/>
<path d="M168.502 78.0691C172.634 72.5164 172.226 64.8096 167.533 59.724C162.839 54.6371 155.189 53.614 149.323 57.2885C143.46 60.9625 141.04 68.2928 143.57 74.7347C144.285 76.6108 145.399 78.311 146.833 79.7179C147.316 80.1907 147.831 80.6319 148.374 81.0355C154.751 85.774 163.763 84.4458 168.502 78.0691Z" fill="white"/>
<path d="M311.341 279.798C326.235 259.821 335.254 236.083 337.384 211.257C336.043 211.048 334.718 210.746 333.423 210.349C333.07 210.244 332.725 210.107 332.375 209.99C331.317 209.63 330.283 209.209 329.273 208.73C328.892 208.549 328.517 208.378 328.15 208.181C326.855 207.517 325.616 206.75 324.44 205.891C317.603 200.897 313.336 193.127 312.792 184.677C312.25 176.228 315.485 167.976 321.625 162.148C321.973 161.808 322.306 161.537 322.653 161.231C323.517 160.476 324.423 159.772 325.368 159.121C325.745 158.864 326.114 158.599 326.504 158.358C327.81 157.534 329.18 156.817 330.602 156.21C309.25 93.8528 245.783 56.2266 180.828 67.4131L180.825 67.5306C180.927 68.7992 180.924 70.0749 180.818 71.344C180.796 71.6368 180.761 71.9348 180.729 72.2257C180.598 73.4148 180.378 74.5936 180.076 75.7493C180.046 75.8459 180.04 75.9438 180.009 76.0404C179.65 77.2699 179.188 78.4675 178.639 79.6229C178.505 79.9054 178.365 80.1837 178.224 80.4606C174.744 87.338 168.153 92.105 160.535 93.2612C152.914 94.4161 145.209 91.8146 139.848 86.2787C139.566 85.999 139.323 85.6816 139.06 85.384C138.497 84.7642 137.971 84.1137 137.478 83.4382C137.37 83.2851 137.23 83.1518 137.122 82.9987C120.929 92.1732 106.849 104.654 95.7982 119.628C51.5689 179.148 63.9646 263.255 123.485 307.484C183.005 351.713 267.111 339.318 311.341 279.798ZM110.736 244.242C102.234 237.923 100.463 225.907 106.781 217.405C108.53 215.067 110.795 213.165 113.403 211.847C107.715 168.93 133.058 127.948 173.994 113.864C214.932 99.7773 260.124 116.49 282.048 153.82C303.973 191.151 296.555 238.761 264.313 267.652C232.072 296.545 183.936 298.715 149.226 272.843C139.998 265.971 132.176 257.391 126.19 247.565C120.802 248.743 115.164 247.532 110.736 244.242Z" fill="white"/>
<path d="M337.623 164.028C328.779 165.896 322.44 173.685 322.407 182.724C322.373 191.763 328.654 199.598 337.484 201.533C346.313 203.467 355.294 198.974 359.042 190.75C362.79 182.526 360.289 172.8 353.037 167.405C348.612 164.143 343.007 162.915 337.623 164.028Z" fill="white"/>
<path d="M99.9618 233.973C100.113 233.362 100.16 232.729 100.098 232.102C99.6853 229.485 97.2553 227.68 94.6326 228.041C94.0145 228.162 93.4222 228.39 92.8804 228.711C92.3249 229.007 91.8467 229.431 91.4856 229.944C90.3143 231.501 90.2019 233.611 91.1983 235.285C92.198 236.958 94.1099 237.86 96.0366 237.567C96.658 237.457 97.2522 237.231 97.7888 236.898C98.8695 236.248 99.6502 235.197 99.9618 233.973Z" fill="white"/>
</g>
<path d="M238.024 288.623L230.357 301.902C228.701 304.772 229.549 308.652 232.252 310.568L289.357 351.054C292.06 352.97 295.595 352.198 297.251 349.328L304.918 336.049C306.575 333.179 305.727 329.299 303.023 327.382L245.919 286.897C243.216 284.98 239.681 285.753 238.024 288.623Z" fill="white"/>
<defs>
<clipPath id="clip0">
<rect width="273.334" height="273.334" fill="white" transform="translate(391.421 172.03) rotate(126.616)"/>
</clipPath>
</defs>
</svg>
